# xmcd
#
# Track frame offsets:
# 150
# 19635
# 36595
# 47372
# 58422
# 72653
# 92003
# 114595
# 122743
# 146673
#
# Disc length: 1990 seconds
#
#
# Revision: 0
# Processed by: cddbd v1.5.1PL2 Copyright (c) Steve Scherf et al.
# Submitted via: FreeRIP 2.945 
#
DISCID=9307c40a
DTITLE=A Música do Leste Europeu - A Música do Leste Europeu
DYEAR=1900
DGENRE=Ethnic
TTITLE0=Czards (Monti) - Carlos Slivskin
TTITLE1=Herbstabend - Itsvan Rokos and Gipsy Ensemble
TTITLE2=Kolade - Mawaca
TTITLE3=Volga Volga - Carlos Slivskin
TTITLE4=Ca Din Caval Hora Batrineasca - Romania Ensemble
TTITLE5=Na Khelav - Nawaca
TTITLE6=Noites de Moscow - Carlos Slivskin
TTITLE7=Bre Petrunko - Mawaca
TTITLE8=Hora de Concert - Romania Ensemble
TTITLE9=Dados
EXTD=Azulmusic\n\nwww.azulmusic.com.br
EXTT0=
EXTT1=
EXTT2=
EXTT3=
EXTT4=
EXTT5=
EXTT6=
EXTT7=
EXTT8=
EXTT9=
PLAYORDER=
